<svg xmlns="http://www.w3.org/2000/svg" data-name="Ebene 1" viewBox="0 0 1892.157 953.679"><path fill="#66b8b2" d="M1809.38 7.552c-26.303-.722-24.905 38.733-24.905 39.476 0 21.424 11.817 38.012 25.046 38.025l-48.663 344.772h72.456V46.367c0-21.437-6.616-38.34-23.934-38.815z"/><path fill="#595e62" d="M1788.89 207.567l103.267 733.544h-34.358l-103.28-733.544h34.371z" data-name="Path"/><path fill="#595e62" d="M1711.722 696.712h125.574v19.862h-125.574z"/><path fill="#c1c7cc" d="M1759.386 207.567L1656.119 941.11h34.371l103.267-733.544h-34.371z" data-name="Path"/><path fill="#595e62" d="M1482.754 207.567L1586.02 941.11h-34.358l-103.28-733.544h34.372z" data-name="Path"/><path fill="#c1c7cc" d="M1453.25 207.567L1349.982 941.11h34.37l103.267-733.544h-34.37z" data-name="Path"/><path fill="#def5f3" d="M1750.217 505.392H1362.66l59.163-420.21h387.556l-59.163 420.21z" data-name="Path"/><path fill="#8a9097" d="M1337.215 505.392h442.16c0 19.195-15.56 34.755-34.754 34.755h-372.65c-19.195 0-34.756-15.56-34.756-34.755z" data-name="Path"/><path fill="#c1c7cc" d="M1837.297 85.425a27.202 27.202 0 0 1-.27 3.93l-58.548 416.037h-28.262l59.163-420.21 3.842-27.405c13.7 1.915 23.935 13.57 24.062 27.404l.013.244z" data-name="Path"/><path fill="#8a9097" d="M1837.297 85.181c-.128-13.833-10.363-25.488-24.063-27.402v-.002h-39.382l27.378 27.379 36.067.025z"/><path fill="#8dd2cd" d="M1785.446 46.367c0-21.437 10.705-38.815 23.934-38.815h-387.672c-13.215 0-23.934 17.378-23.934 38.815s10.719 38.814 23.934 38.814h387.672c-13.216 0-23.934-17.377-23.934-38.814z" data-name="Path"/><path fill="#595e62" d="M1485.302 488.668h80.741v16.724h-80.741z" data-name="Rectangle"/><path fill="#18837e" d="M1566.043 488.668h30.119v16.724h-30.119z" data-name="Rectangle"/><path fill="#79c5c0" d="M1591.286 112.26l-2.329 16.555h-148.04l2.331-16.555h148.038z" data-name="Path"/><path fill="#a1dfdb" d="M1511.235 135.744l-1.67 11.875h-71.127l1.672-11.875h71.125zM1505.275 190.296l-1.67 11.875h-71.127l1.672-11.875h71.125zM1491.598 282.421l-1.67 11.876H1418.8l1.673-11.876h71.124z" data-name="Path"/><path fill="#c1c7cc" d="M1243.873 261.505c.346-.371.59-.781.935-1.153l160.65-2.33 51.223-10.68 2.561 9.553c-.064 0-25.88 7.683-25.88 7.683s3.009 21.77 3.022 21.693c-38.418 8.606-54.054-3.841-54.054-3.841l-107.12 23.46-1.78.448a27.98 27.98 0 0 1-14.574-.205c-17.928-5.186-28.044-27.724-14.918-44.628h-.065z" data-name="Path"/><path fill="#c1c7cc" d="M1426.83 245.587l5.648 6.89-22.257 17.147-31.284-10.36 47.894-13.677z" data-name="Path"/><path fill="#147671" d="M1181.214 210.09l43.412-41.363 58.446 91.062-35.357 49.623-66.5-99.323z" data-name="Path"/><path fill="#d0d4d8" d="M1415.075 265.885s1.882 12.127 7.683 16.442a17.685 17.685 0 0 0 13.703 3.996l-3.023-21.693-18.363 1.255z" data-name="Path"/><path fill="#011413" d="M1065.091 138.044c-15.623 14.214-16.648 25.138-13.843 36.138 3.675 13.933 10.168 19.49 10.168 19.49l143.9 2.562v-33.526a68.178 68.178 0 0 0 10.449-36.983c0-9.131-6.314-23.909-10.079-32.758a3.47 3.47 0 0 1-.37-.845V65.486c17.786-17.928 7.81-36.138-3.01-43.476 0-.09-.103-.09-.103-.192-3.944-10.066-11.756-18.812-26.815-20.886-36.612-5.123-51.761 11.294-58.075 39.057-.935 4.418-2.061 10.437-3.099 16.277a42.26 42.26 0 0 1-18.158 27.763c-11.295 7.337-20.81 19.106-26.637 32.847a64.247 64.247 0 0 0-4.328 21.168zm136.177-96.812l1.601 2.702a155.911 155.911 0 0 1-4.994 35.472c-5.263 19.477-9.592 28.89-9.592 28.89a67.27 67.27 0 0 1-15.52 2.753c.384 3.573.896 7.235 1.28 11 1.793 14.868 3.483 28.993 3.483 28.993l-54.454-.004 12.041-67.56c-4.623-6.019-15.725-21.924-9.13-29.172 7.338-7.94 16.084 9.58 17.121 11.935 15.534-.371 50.455-3.624 58.164-24.997v-.012z"/><path fill="#c1c7cc" d="M1158.707 109.77a66.312 66.312 0 0 0 14.304 1.28c.384 3.573.794 7.286 1.178 11.051a71.968 71.968 0 0 1-15.482-12.28v-.052z" data-name="Path"/><path fill="#d0d4d8" d="M1173.108 111.062a48.918 48.918 0 0 1-14.304-1.28 81.176 81.176 0 0 0 15.367 12.229c1.69 14.88 3.483 28.992 3.483 28.992h-54.834l12.242-67.576c-4.61-6.019-15.725-21.924-9.13-29.172 7.683-8.285 16.276 9.694 17.403 11.948 15.623-.371 50.16-3.765 57.882-25.023l1.793 2.728a161.828 161.828 0 0 1-4.994 35.472c-5.263 19.49-9.592 28.89-9.592 28.89s-6.437 2.428-15.316 2.792z" data-name="Path"/><path fill="#18837e" d="M1204.188 155.101c14.202 3.202 25.612 14.586 27.763 28.98l2.446 26.072c-21.744-33.423-30.209-55.052-30.209-55.052z" data-name="Path"/><path fill="#c1c7cc" d="M1204.086 899.544l-17.032.064s-32.463-113.499-17.685-199.695c19.567-3.112 38.763-6.787 57.025-8.375 0 0-22.129 208.006-22.308 208.006z" data-name="Path"/><path fill="#eff1f2" d="M1061.89 899.608l49.507-194.15c-21.872-.192-43.386-3.944-63.62-14.778-4.994 36.138.282 84.045-3.585 208.736l17.698.192z" data-name="Path"/><path fill="#18837e" d="M1187.054 899.608v.473l-8.093 40.98h79.998a35.05 35.05 0 0 0 27.097-12.807l.192-.281-82.162-28.43-17.032.065zm-181.254 31.72a9.681 9.681 0 0 0 9.694 9.694h49.315l-2.83-41.978-17.787-.192-36.702 27.02a8.785 8.785 0 0 0-1.69 5.456z" data-name="Shape"/><path fill="#18837e" d="M1108.093 339.083l-39.058-136.741-.294-2.164a2.19 2.19 0 0 0-.09-.756c0-.46-.09-.935-.09-1.408a2.395 2.395 0 0 0-.102-.846c0-.371-.09-.845-.09-1.28v-6.775a4.06 4.06 0 0 1 .09-1.037l.102-.845c0-.371.09-.756.09-1.037s.09-.564.09-.845l.102-1.038c0-.281.09-.563.09-.845a3.47 3.47 0 0 1 .192-.935c.09-.281.09-.563.192-.845s.09-.666.18-.948l.191-.755c.09-.282.192-.653.282-.935l.192-.755c.09-.282.192-.654.282-.935.106-.24.17-.495.192-.756.079-.332.204-.65.371-.947.078-.225.172-.443.282-.654.09-.37.282-.665.371-1.037l.192-.563c.193-.372.372-.845.564-1.28a.32.32 0 0 0 .102-.283c.282-.46.461-.934.743-1.498.103-.102.192-.282.282-.384.169-.373.393-.719.666-1.025.091-.21.216-.406.371-.576.216-.262.404-.545.564-.845l.384-.563c.161-.27.35-.524.563-.756.131-.209.29-.398.474-.563.18-.18.371-.461.653-.743s.372-.384.474-.576c.195-.24.413-.459.653-.654l.564-.563c.231-.244.484-.467.755-.666l.564-.46c.281-.193.473-.385.755-.564l.653-.474c.282-.192.474-.372.756-.564l.666-.473.845-.564.755-.474.846-.474c.281-.09.46-.281.742-.37l.948-.475.755-.371c.337-.177.683-.336 1.038-.474l.742-.282a4.93 4.93 0 0 1 1.14-.371l.59-.14c14.425 49.456 24.879 86.583 31.36 111.38 6.483 24.798 11.985 48.712 16.508 71.743l-31.234.064z" data-name="Path"/><path fill="#419e98" d="M1226.547 339.083h-87.208l-47.996-183.124v-.192c1.28-.371 28.71-9.502 28.71-9.502l5.328-12.998h52.709l4.802 12.985 18.043 7.428 3.484 1.408s8.464 21.77 30.209 55.065l.653 1.038c9.796 12.806 13.933 26.162 7.914 52.324-1.985 8.657-4.047 17.788-6.121 26.893-5.968 27.187-10.527 48.675-10.527 48.675z" data-name="Path"/><path fill="#a1dfdb" d="M1112.716 355.551h110.297l10.347 19.952c.653 4.43 4.892 46.587 4.802 51.018.09.653 20.233 264.825 19.85 264.825a162.52 162.52 0 0 0-31.708.282c-18.172 1.6-37.457 5.263-57.037 8.375-19.286 3.099-38.866 5.737-58.152 5.455-21.77-.192-43.386-4.046-63.62-14.778a120.718 120.718 0 0 1-25.7-18.44c-.743-.653 27.763-270.857 90.921-316.689z" data-name="Path"/><path fill="#011413" d="M1108.093 339.083h118.454l-3.573 16.468h-110.399l-4.482-16.468z" data-name="Path"/><path fill="#c1c7cc" d="M1149.302 361.928c-.474 1.281-9.028 2.638-9.604 3.957a55.527 55.527 0 0 1-4.047 8.273c-3.573 5.84-36.932 7.197-36.932 7.197l10.795-37.265 41.863 11.461c0-.09-.845 3.086-2.075 6.377z" data-name="Path"/><path fill="#d0d4d8" d="M1002.611 251.747l43.77 22.397c-4.61 5.123-8.848 9.797-12.421 14.215 19.094 17.505 37.06 42.26 57.626 61.468l17.929-5.737-10.796 37.265s-14.086-5.366-19.209-7.428l-102.677-87.873c1.6-2.254 9.694-13.037 25.778-34.307z" data-name="Path"/><path fill="#147671" d="M1052.592 181.545c15.905-19.298 23.896-24.843 38.777-25.79 12.319 15.533 16.186 23.908 12.6 44.986-5.48 31.81-70.009 87.618-70.009 87.618s-21.373-14.624-57.127-2.305c51.3-74.492 75.76-104.509 75.76-104.509z" data-name="Path"/><path fill="#79c5c0" d="M89.792 462.303c51.823-.262 103.347-15.56 103.347-15.56s4.925 37.167 2.483 37.609C132.25 497.762 34.74 528.504 31.69 462.276c0 .124 29.21.207 58.101.027z" data-name="Path"/><path fill="#8dd2cd" d="M255.153 491.41c-12.11 7.45-16.8-2.64-22.494-7.68-8.34-8.932-3.845-52.096-3.845-52.096l20.319 27.133 6.02 32.644z" data-name="Path"/><path fill="#b2b9c0" d="M531.948 893.364l-.11.304a36.66 36.66 0 0 1-19.965 24.132l-75.652 35.39-10.334-42.993 19.868-9.34 86.193-7.493z" data-name="Path"/><path fill="#d0d4d8" fill-rule="evenodd" d="M0 627.79l232.501-.4a29.251 29.251 0 0 1-29.347 29.25h-5.174l16.378 295.019H195.8L179.478 656.64l-126.716.552-16.323 295.17H17.675L34.176 656.64h-5.38C12.87 656.603-.016 643.674 0 627.749v.041z" data-name="Path"/><path fill="#b2b9c0" d="M263.435 881.899l22.2 6.898 56.57 60.24-.303.097a36.26 36.26 0 0 1-31.224-.814l-67.511-35.198 20.268-31.223z" data-name="Path"/><g fill="#a1dfdb"><path d="M351.974 569.869c-55.563-37.309-192.972-46.415-192.972-46.415l-83.999-7.258c-4.443 2.238 61.777 24.468 126.289 29.817 42.761 7.058 130.294 31.718 147.73 37.846v-.004l.013.004 2.939-13.99zM323.979 634.358c-9.718-6.968-30.838-9.919-54.666-5.905-24.242 68.339-8.5 174.165-6.07 253.873l22.393 6.499 38.95-187.646a185.024 185.024 0 0 1-.607-66.821z"/></g><path fill="#b6ede8" d="M75.003 516.196c22.504 6.085 18.572 10.404 75.362 19.62 118.451 10.197 215.24 53.976 215.24 53.976L445.7 901.091l-19.882 9.327c-40.965-66.932-88.718-137.906-101.605-209.39-3.946-22.311-4.663-44.622-.607-66.822-10.845-5.27-29.306-6.291-54.652-5.684-33.114.717-77.873 4.056-133.339 4.056-89.531 0-109.758-46.056-91.711-112.367l31.1-4.015z" data-name="Path"/><path fill="#8dd2cd" d="M138.54 290.842H81.655l6.691-37.419 5.81-32.548c-.189-.218 6.994-21.593 7.201-21.593 45.629 0 59.012-10.445 63.179-18.254a168.07 168.07 0 0 1-5.008 35.473c-.304 1.38-.704 2.539-1.008 3.753-4.98 17.744-8.927 26.215-8.927 26.215a64.544 64.544 0 0 1-15.825 2.843c.4 3.642.869 7.63 1.283 11.465l3.49 30.065z" data-name="Path"/><path fill="#2e908b" d="M149.592 246.525a64.544 64.544 0 0 1-15.825 2.842l-.497-4.76 16.322 1.918z" data-name="Path"/><path fill="#147671" d="M31.476 462.372l-8.351-138.94c5.353-21.414 15.867-30.451 33.114-32.645 14.653 14.142 18.985 46.842 18.17 62.199-2 39.86-14.004 109.386-14.004 109.386H31.476z" data-name="Path"/><path fill="#053634" d="M175.27 301.452c5.518 6.223 9.934 8.983 12.169 23.898l1.918 27.815c-4.14-6.388-8.72-10.486-15.109-18.088l-1.517-1.821c-4.457-5.381-8.279-10.349-11.77-14.805a206.381 206.381 0 0 1-18.047-27.981l32.355 10.982z" data-name="Path"/><path fill="#116864" d="M50.595 291.008c6.499-1.215 21.91-7.81 26.464-12.418 5.892-6.195 5.988-8.016 5.988-8.016l54.555 2.842s-.207 4.967 5.781 16.93a179.96 179.96 0 0 0 18.048 27.994c3.449 4.554 7.298 9.52 11.755 14.805l1.518 1.821a238.61 238.61 0 0 1 16.032 20.366c8.279 12.776 11.149 25.249 4.857 46.649-.8 2.939-1.918 6.084-3.132 9.423-9.23 25.153-18.764 52.224-25.36 70.782a404.491 404.491 0 0 1-3.642 10.334c-2.76 7.92-8.915 29.065-8.915 29.065s-33.94 9.913-81.059 7.457c-23.952-1.256-29.581-8.83-29.581-8.83l-.207-2.443-13.88-178.36c-1.629-24.435-3.257-43.696 20.778-48.36v-.041z" data-name="Path"/><path fill="#b6ede8" d="M150.917 139.553c-19.358-6.485-62.2-10.942-71.416 24.338-2.312 8.604-3.645 26.534-.148 42.03-16.712 2.207-29.613 16.5-29.613 33.815 0 1.741.132 3.452.384 5.123C36.3 251.648 26.78 265.86 26.78 282.3c0 23.029 18.668 41.696 41.696 41.696s41.696-18.667 41.696-41.696a41.527 41.527 0 0 0-3.653-17.062c7.03-6.25 11.462-15.357 11.462-25.503 0-2.92-.368-5.753-1.058-8.458 13.104-4.616 23.368-17.123 25.447-33.73 25.957-4.585 34.527-15.54 35.41-22.453 2.91-22.849-17.123-32.3-26.864-35.542z"/><path fill="#8dd2cd" d="M146.226 221.04a3.878 3.878 0 0 1-.497-.703c-5.077-6.692-15.522-22.31-8.927-29.513 6.085-6.581 12.873 2.939 16.116 8.72.206 0-6.692 21.497-6.692 21.497z" data-name="Path"/><path fill="#032b28" d="M133.27 343.004l19.661-19.007 17.716 6.071c.828 1.008 1.67 2.029 2.539 3.063l1.518 1.822a238.626 238.626 0 0 1 16.032 20.379c8.279 12.776 11.149 25.249 4.857 46.649-.8 2.939-1.918 6.084-3.132 9.423-9.23 25.153-18.764 52.224-25.36 70.782a404.491 404.491 0 0 1-3.642 10.334c-2.76 7.92-9.332 30.513-9.332 30.513s-3.065-.407-6.448.289c-15.148 3.114-21.882 4.2-37.189 5.292l22.78-185.61z" data-name="Path"/><path fill="#147671" d="M185.127 467.718s-34.27-79.259-45.369-116.405c-3.496-11.687-4.513-38.968 20.143-47.546 23.981-8.335 29.582 7.343 34.728 18.05 16.344 34.008 44.583 130.852 42.024 131.574l-51.526 14.327z" data-name="Path"/><path fill="#a1dfdb" d="M235.938 453.59c9.266 27.586 12.066 40.586-9.68 45.744-12.37 2.382-38.54.016-64.318-2.215l12.71-36.208 6.833-1.713 2.424 5.682c8.232-2.122 44.43-10.097 52.03-11.29z" data-name="Path"/><path fill="#053634" d="M552.895 523.68l.387.18 164.866 62.213c-39.033 3.242-50.858 22.752-63.73 68.587-140.942-27.374-230.722-.952-233.565-78.025l30.727-12.418 101.191-40.66.124.123z" data-name="Path"/><path fill="#053634" d="M718.148 586.073l-4.87 54.348-29.596 267.63-40.758 14.901c-15.826-150.875-16.033-233.716-3.353-279.344 12.68-45.628 39.433-54.155 78.577-57.535z" data-name="Path"/><path fill="#d0d4d8" fill-rule="evenodd" d="M383.49 629.066l116.064.372 116.065-.372c-.03 15.894-12.929 28.761-28.823 28.754h-5.34l16.35 295.031h-18.475l-16.35-294.866-56.1.235H492.228l-56.1-.235-16.35 294.866h-18.476l16.35-294.949h-5.34a28.809 28.809 0 0 1-28.822-28.836z" data-name="Path"/><path fill="#02201e" d="M888.96 938.667l-.206.304a40.013 40.013 0 0 1-31.03 14.708h-104.53l9.12-33.707 45.117-13.08 81.53 31.734v.041zM683.682 908.05l59.329 30.617-.207.304a40.013 40.013 0 0 1-31.03 14.708h-75.128l6.278-30.727.814-.303 39.944-14.598z" data-name="Path"/><path fill="#053634" d="M507.93 631.356l30.354 1.532c-10.804-.663-20.917-1.118-30.355-1.532z" data-name="Path"/><path fill="#0a4f4b" d="M400.585 538.347c-2.028 100.956 43.338 90.25 107.344 93.009 9.438.414 19.551.87 30.355 1.532l90.539 4.58 83.53 4.209 61.04-69.65L549.5 519.5l-148.916 18.847z" data-name="Path"/><path fill="#8dd2cd" d="M379.633 504.309l16.45-.293-.759-10.155-11.304.293-4.387 10.155z" data-name="Path"/><path fill="#419e98" d="M424.855 454.39c4.774-21.193 13.99-62.958 20.075-98.652 2.539-14.709 15.315-57.66-10.045-63.33-11.465 4.842-44.897 18.019-50.554 42.66-14.99 42.932-8.771 140.225-4.698 169.24 17.43-11.844 32.419-28.657 45.222-49.918z" data-name="Path"/><path fill="#b6ede8" d="M470.485 230.815s8.57-25.936 8.736-26.585c1.6-8.585 1.207-32.38 1.207-32.38s20.807-10.063 41.342-6.94c9.581 1.509 20.098 8.69 23.115 12.342-.226 8.932-1.086 26.088-2.655 34.914-.604 3.38-1.298 6.895-2.218 10.426-5.492 21.5-10.155 31.866-10.155 31.866a67.897 67.897 0 0 1-16.748 3.23c.438 3.922 1.026 8.071 1.51 12.22 2.066 16.175 17.454 21.597 17.454 21.597l-85.798-4.966 16.386-10.285 7.824-45.439z" data-name="Path"/><path fill="#66b8b2" d="M416.742 301.293l38.966-21.607 64.874 1.062 41.873 32.645a31.14 31.14 0 0 1 13.052 19.62c2.539 11.66-.096 25.346-2.332 39.447l-14.402 85.186v.303l-9.327 61.55c-82.26 40.538-148.889 18.848-148.889 18.848-25.316-139.989-18.548-168.121-10.683-206.768 1.824-8.983 18.635-26.255 26.868-30.286z" data-name="Path"/><path fill="#419e98" d="M451.912 179.711c1.705-62.042 59.387-53.774 65.935-42.94 20.43-9.19 58.256 20.338 26.917 42.518a25.861 25.861 0 0 0-12.658-8.344c-.272 7.544-1.419 21.772-3.682 37.132-2.731 18.604-15.752 19.102-25.997 40.135-1.358 2.806-4.873 3.214-7.891 3.968-4.723 1.192-15.315 1.72-19.117.664-3.802-1.056-6.865-2.233-7.438-6.035-3.154-20.943-16.793-41.025-16.07-67.098z" data-name="Path"/><path fill="#b6ede8" d="M526.312 228.492c-3.425-6.156-12.976-24.594-8.239-32.56 3.561-6.036 9.053 3.213 12.524 10.817l-4.285 21.743z" data-name="Path"/><path fill="#8dd2cd" d="M513.11 257.748l-.83-5.266 17.577 1.976a67.896 67.896 0 0 1-16.748 3.29z" data-name="Path"/><path fill="#116864" d="M773.365 572.013l33.97 335.03-45.118 13.08s-68.105-210.177-49.892-278.446c11.41-42.786 61.04-69.664 61.04-69.664z" data-name="Path"/><path fill="#419e98" d="M519.074 350.673l54.821-4.4c-.593 6.898-1.863 14.17-3.022 21.537l-12.072 89.836v.303l-9.328 61.55a243.966 243.966 0 0 1-43.351 16.558c-.331-50.94 9.42-139.452 12.952-185.383z" data-name="Path"/><path fill="#8dd2cd" d="M518.877 514.64s-2-123.206.028-161.922c.634-12.183 8.858-38.219 34.949-38.013 25.4.208 24.062 26.134 24.062 38.013 0 37.253-9.616 161.921-9.616 161.921h-49.423z" data-name="Path"/><path fill="#b6ede8" d="M669.892 523.334l27.803 7.902 40.602 28.682c-4.594 11.92-30.359-1.304-49.17-.745-15.195-1.423-27.75-4.098-31.128-10.258l-138.984-34.267c28.105-1.021 50.558-13.153 51.817-34.236 27.038.87 63.477 28.536 99.06 42.922z" data-name="Path"/><path fill="#a1dfdb" d="M1654.904 324.538h-25.154l5.25-38.062h31.499l-4.833 35.04-6.762 3.022zM1572.823 224.623h-25.155l5.25-38.062h31.5l-4.833 35.04-6.762 3.022zM1653.768 380.314h-31.478l5.25-38.062h30.692l.408 2.885-4.872 35.177zM1530.34 324.538h-25.154l5.25-38.062h31.5l-4.833 35.04-6.762 3.022zM1529.205 380.314h-31.478l5.25-38.062h30.692l.407 2.885-4.871 35.177zM1613.641 380.314h-31.478l5.25-38.062h30.692l.408 2.885-4.872 35.177zM1735.843 378.933h-25.155l5.127-37.168 13.248-.894h18.375l-4.833 35.04-6.762 3.022zM1750.406 324.538h-31.492l5.25-38.062h31.5l-5.258 38.062zM1713.657 324.538h-31.492l5.25-38.062h31.5l-5.258 38.062zM1616.694 224.623h-31.492l5.25-38.062h31.5l-5.258 38.062z"/></svg>